<?xml version="1.0" encoding="utf-8"?>
<!-- Generator: Adobe Illustrator 16.0.0, SVG Export Plug-In . SVG Version: 6.00 Build 0)  -->
<!DOCTYPE svg PUBLIC "-//W3C//DTD SVG 1.1//EN" "http://www.w3.org/Graphics/SVG/1.1/DTD/svg11.dtd">
<svg version="1.1" id="Layer_1" xmlns="http://www.w3.org/2000/svg" xmlns:xlink="http://www.w3.org/1999/xlink" x="0px" y="0px"
	 width="213.521px" height="489.72px" viewBox="360.774 8.243 213.521 489.72"
	 enable-background="new 360.774 8.243 213.521 489.72" xml:space="preserve">
<g>
	<g id="XMLID_3_">
		<g>
			<path fill="#FFFFFF" d="M498.122,122.309c2.644,3.988,2.831,9.982,1.923,14.849c-2.291,12.288-11.47,18.079-20.399,13.715
				c-1.06-0.519-1.743,0.969-1.623,2.11c0.045,0.428,0.075,0.841,0.105,1.247c1.569,23.809-26.183,18.063-34.94,7.143
				c-0.616-0.773-1.953-0.556-2.096,0.721c-0.06,0.518-0.128,1.014-0.21,1.502c-4.273,26.363-34.67,5.964-39.034-11.484
				c-0.285-1.149-1.765-1.72-2.208-0.375c-0.135,0.405-0.278,0.796-0.428,1.179c-2.915,7.443-8.69,10.373-14.984,7.917
				c-6.843-2.674-10.711-11.372-10.312-20.302c0.037-0.818-0.428-1.224-0.909-1.224l-0.045-0.593c1.78-0.09,2.403-3.703,0.429-4.311
				c-4.281-1.314-8.916-4.552-7.286-11.131c1.465-5.926,7.233-8.217,11.462-8.344c1.442-0.045,2.23-1.983,1.585-3.598
				c-0.188-0.473-0.368-0.954-0.549-1.442c-2.771-7.736-3.605-16.659,3.027-21.428c5.979-4.296,14.053-2.584,20.099,0.428
				c0.946,0.474,2.058-0.511,2.306-1.697c0.211-1.021,0.451-1.998,0.722-2.929c3.064-10.62,9.816-15.375,18.92-13.354
				c8.592,1.908,16.906,8.089,23.456,15.375c0.736,0.811,1.968,1.074,2.674,0c0.525-0.796,1.059-1.517,1.607-2.171
				c13.129-15.585,33.513,8.194,32.589,28.233c-0.029,0.548-0.067,1.082-0.127,1.623c-0.136,1.299,0.405,2.779,1.585,2.704
				C490.182,116.39,494.907,117.464,498.122,122.309z"/>
			<path fill="#231F20" d="M448.302,81.172c15.54-20.234,39.755,6.993,38.943,31.223c-0.601-0.022-1.194-0.022-1.787,0.007
				l-1.458-0.06c0.924-20.039-19.46-43.818-32.589-28.233l-1.607-1.299C449.316,82.253,448.813,81.712,448.302,81.172z"/>
			<path fill="#231F20" d="M487.246,112.395c-0.022,0.909-0.09,1.817-0.195,2.711c-0.533-0.901-1.059-1.803-1.592-2.704
				C486.051,112.372,486.645,112.372,487.246,112.395z"/>
			<path fill="#231F20" d="M480.621,152.525c0.083,0.841,0.144,1.652,0.166,2.441c-0.608-0.225-1.225-0.48-1.841-0.789
				C479.501,153.629,480.058,153.081,480.621,152.525z"/>
			<path fill="#231F20" d="M498.122,122.309c-3.215-4.844-7.939-5.918-12.663-5.641c-1.18,0.075-1.721-1.404-1.585-2.704
				c0.06-0.541,0.098-1.074,0.127-1.623l1.458,0.06c0.533,0.901,1.059,1.803,1.592,2.704c0.105-0.894,0.173-1.803,0.195-2.711
				c5.032,0.158,10.154,2.043,13.287,7.503c2.854,4.972,3.454,11.566,2.328,17.507c-2.554,13.422-12.032,21.166-22.074,17.561
				c-0.022-0.789-0.083-1.6-0.166-2.441c-0.562,0.556-1.119,1.104-1.675,1.652l-0.818,0.053c-0.03-0.406-0.061-0.819-0.105-1.247
				c-0.12-1.142,0.563-2.629,1.623-2.11c8.93,4.364,18.108-1.427,20.399-13.715C500.953,132.291,500.765,126.297,498.122,122.309z"
				/>
			<path fill="#231F20" d="M449.804,82.809l1.607,1.299c-0.549,0.654-1.082,1.375-1.607,2.171c-0.706,1.074-1.938,0.811-2.674,0
				c-6.55-7.286-14.864-13.467-23.456-15.375c-9.104-2.02-15.855,2.734-18.92,13.354l-2.036-0.06
				c-0.562-0.278-1.134-0.541-1.712-0.789c3.297-12.476,11.094-19.266,21.646-17.628c9.32,1.442,18.386,7.699,25.649,15.39
				c-0.398,0.511-0.789,1.059-1.172,1.637C448.024,82.809,448.911,82.809,449.804,82.809z"/>
			<path fill="#231F20" d="M449.804,82.809c-0.894,0-1.78,0-2.674,0c0.383-0.578,0.773-1.126,1.172-1.637
				C448.813,81.712,449.316,82.253,449.804,82.809z"/>
			<path fill="#231F20" d="M443.187,161.373c8.758,10.921,36.51,16.667,34.94-7.143l0.818-0.053
				c0.616,0.308,1.232,0.563,1.841,0.789c0.871,24.778-26.048,22.134-37.675,10.59c0.158-0.826,0.293-1.69,0.398-2.599
				c-0.699,0.24-1.397,0.48-2.096,0.721l-0.533-0.083c0.082-0.488,0.15-0.984,0.21-1.502
				C441.234,160.817,442.571,160.599,443.187,161.373z"/>
			<path fill="#231F20" d="M443.51,162.958c-0.105,0.909-0.24,1.772-0.398,2.599c-0.608-0.593-1.179-1.224-1.697-1.878
				C442.113,163.438,442.811,163.198,443.51,162.958z"/>
			<path fill="#231F20" d="M402.718,84.199l2.036,0.06c-0.271,0.931-0.511,1.908-0.722,2.929c-0.248,1.187-1.359,2.171-2.306,1.697
				c-6.046-3.012-14.12-4.724-20.099-0.428c-6.633,4.769-5.799,13.692-3.027,21.428l-1.036,0.263
				c-0.924,0.03-1.855,0.143-2.771,0.338c-2.847-8.863-3.447-19.543,3.74-25.327c6.64-5.34,15.225-4.845,22.473-1.75
				c-0.218,0.804-0.413,1.63-0.586,2.486C401.186,85.333,401.953,84.762,402.718,84.199z"/>
			<path fill="#231F20" d="M402.718,84.199c-0.766,0.563-1.532,1.134-2.298,1.697c0.173-0.856,0.368-1.682,0.586-2.486
				C401.584,83.658,402.156,83.921,402.718,84.199z"/>
			<path fill="#231F20" d="M401.727,153.313c-0.338,1.014-0.729,1.968-1.172,2.862c-0.42-1.074-0.766-2.156-1.036-3.23
				C400.255,153.065,400.991,153.193,401.727,153.313z"/>
			<path fill="#231F20" d="M401.727,153.313c-0.736-0.12-1.472-0.248-2.208-0.368l-0.308-0.03c0.149-0.383,0.293-0.774,0.428-1.179
				c0.443-1.345,1.923-0.774,2.208,0.375c4.364,17.448,34.761,37.847,39.034,11.484l0.533,0.083
				c0.519,0.654,1.089,1.285,1.697,1.878c-5.085,26.881-35.128,9.509-42.557-9.381C400.999,155.281,401.389,154.328,401.727,153.313
				z"/>
			<path fill="#231F20" d="M374.793,110.487c0.916-0.195,1.848-0.308,2.771-0.338c-0.533,1.194-1.066,2.396-1.593,3.598
				C375.552,112.695,375.154,111.606,374.793,110.487z"/>
			<path fill="#231F20" d="M375.972,113.747c0.526-1.202,1.06-2.404,1.593-3.598l1.036-0.263c0.181,0.488,0.36,0.969,0.549,1.442
				c0.646,1.615-0.143,3.553-1.585,3.598c-4.229,0.127-9.997,2.418-11.462,8.344c-1.63,6.58,3.005,9.817,7.286,11.131
				c1.975,0.608,1.352,4.221-0.429,4.311c-0.15,0.007-0.308-0.007-0.473-0.053c-5.648-1.577-12.176-7.113-10.042-15.863
				c1.757-7.24,6.872-11.184,12.348-12.31C375.154,111.606,375.552,112.695,375.972,113.747z"/>
			<path fill="#231F20" d="M373.915,140.53c-0.398,8.931,3.47,17.628,10.312,20.302c6.294,2.456,12.069-0.473,14.984-7.917
				l0.308,0.03c0.271,1.074,0.616,2.156,1.036,3.23c-3.567,7.285-10.335,10.68-16.944,7.541c-7.623-3.62-12.25-12.633-11.649-23.186
				c0.045-0.811,0.556-1.224,1.044-1.224C373.487,139.306,373.952,139.711,373.915,140.53z"/>
		</g>
	</g>
</g>
<g>
	<g id="XMLID_1_">
		<g>
			<path fill="#FFFFFF" d="M418.865,26.822c6.316,1.457,11.649,6.256,9.734,13.324c-2.043,7.518-9.854,6.211-15.007,2.989
				c-0.338-0.218-0.661-0.436-0.977-0.661c-0.646-0.473-1.593,0.022-1.788,0.729c-2.17,7.961-9.17,13.497-17.154,14.932
				c-8.908,1.607-14.789-4.469-14.932-13.106c-0.015-0.563-0.383-1.104-0.946-1.239c-0.36-0.09-0.743-0.195-1.142-0.315
				c-4.582-1.359-11.056-4.521-8.375-10.125c2.494-5.22,9.899-5.926,14.85-5.13c1.486,0.24,2.178-1.863,0.961-2.351
				c-1.014-4.138-0.788-8.878,3.35-11.199c4.537-2.531,9.374,1.84,11.657,5.34c0.488,0.751,1.614,0.631,1.885-0.248
				c0.068-0.225,0.143-0.458,0.226-0.683c1.6-4.634,5.07-9.434,10.605-8.014c6.054,1.555,6.316,9.306,5.107,14.135
				c-0.136,0.548,0.173,1.292,0.788,1.39C418.098,26.656,418.482,26.731,418.865,26.822z"/>
			<path fill="#231F20" d="M419.368,24.613c-0.075,0.398-0.165,0.796-0.263,1.187c-0.263-0.466-0.525-0.932-0.789-1.397
				C418.669,24.463,419.015,24.531,419.368,24.613z"/>
			<path fill="#231F20" d="M413.592,43.135c5.152,3.222,12.964,4.529,15.007-2.989c1.915-7.068-3.418-11.867-9.734-13.324
				l0.24-1.021c0.098-0.391,0.188-0.789,0.263-1.187c7.488,1.675,14.459,8.337,11.342,16.652
				c-3.125,8.314-11.544,8.134-18.026,4.161c0.188-0.518,0.354-1.044,0.496-1.577L413.592,43.135z"/>
			<path fill="#231F20" d="M411.391,44.577c0.594-0.24,1.194-0.488,1.788-0.729c-0.143,0.533-0.309,1.059-0.496,1.577
				C412.24,45.163,411.812,44.878,411.391,44.577z"/>
			<path fill="#231F20" d="M416.919,25.199c1.209-4.83,0.946-12.581-5.107-14.135c-5.535-1.419-9.006,3.38-10.605,8.014l-0.33-0.113
				c-0.368-0.556-0.781-1.104-1.232-1.645c2.163-5.295,7.091-10.74,13.302-8.172c6.31,2.606,7.586,9.381,6.422,15.465
				c-0.353-0.083-0.698-0.15-1.052-0.21c0.264,0.465,0.526,0.931,0.789,1.397l-0.24,1.021c-0.383-0.09-0.767-0.166-1.157-0.233
				C417.092,26.491,416.784,25.748,416.919,25.199z"/>
			<path fill="#231F20" d="M399.644,17.32c0.451,0.541,0.864,1.089,1.232,1.645c-0.624,0.083-1.255,0.165-1.886,0.248
				C399.171,18.597,399.389,17.959,399.644,17.32z"/>
			<path fill="#231F20" d="M384.33,26.762c0.331,1.119-1.39,1.577-1.734,0.48c-0.173-0.541-0.323-1.097-0.443-1.66
				c0.563,0.045,1.111,0.12,1.645,0.203c0.105,0.015,0.21,0.045,0.293,0.083C384.165,26.168,384.248,26.469,384.33,26.762z"/>
			<path fill="#231F20" d="M387.439,14.669c-4.138,2.321-4.363,7.061-3.35,11.199c-0.083-0.038-0.188-0.067-0.293-0.083
				c-0.533-0.083-1.081-0.158-1.645-0.203c-1.112-4.972-0.315-10.568,4.852-12.904c4.867-2.193,9.576,0.924,12.641,4.642
				c-0.255,0.639-0.473,1.277-0.653,1.893c0.631-0.083,1.262-0.166,1.886-0.248l0.33,0.113c-0.083,0.225-0.157,0.458-0.226,0.683
				c-0.271,0.879-1.396,0.999-1.885,0.248C396.813,16.509,391.976,12.138,387.439,14.669z"/>
			<path fill="#231F20" d="M412.616,42.474c0.315,0.226,0.639,0.443,0.977,0.661l-0.413,0.713c-0.594,0.24-1.194,0.488-1.788,0.729
				c0.421,0.301,0.849,0.586,1.292,0.849c-2.967,8.337-11.094,14.601-19.964,15.353c-9.682,0.818-15.923-5.521-16.509-14.751
				c0.308,0.09,0.608,0.165,0.901,0.24c-0.315-0.413-0.631-0.826-0.946-1.239l0.488-1.555c0.398,0.12,0.781,0.226,1.142,0.315
				c0.563,0.135,0.932,0.676,0.946,1.239c0.143,8.638,6.023,14.714,14.932,13.106c7.984-1.435,14.984-6.97,17.154-14.932
				C411.023,42.497,411.969,42.001,412.616,42.474z"/>
			<path fill="#231F20" d="M376.166,45.028c0.315,0.413,0.631,0.826,0.946,1.239c-0.293-0.075-0.594-0.15-0.901-0.24
				C376.188,45.696,376.173,45.366,376.166,45.028z"/>
			<path fill="#231F20" d="M383.128,28.219c-4.95-0.796-12.355-0.09-14.85,5.13c-2.681,5.603,3.793,8.765,8.375,10.125l-0.488,1.555
				c0.008,0.338,0.022,0.668,0.045,0.999c-5.911-1.69-13.324-5.986-10.5-13.167c2.486-6.339,10.282-7.856,16.441-7.278
				c0.12,0.563,0.271,1.119,0.443,1.66c0.345,1.097,2.065,0.639,1.734-0.48c-0.082-0.293-0.165-0.594-0.24-0.894
				C385.306,26.356,384.615,28.459,383.128,28.219z"/>
		</g>
	</g>
</g>
<g>
	<g>
		<g id="XMLID_6_">
			<g>
				<path fill="#231F20" d="M573.609,368.845c1.014,3.223,0.195,6.558-1.818,9.209c-2.013,2.651-5.189,4.341-8.555,3.905
					c-4.093-0.533-6.744-4.108-8.442-7.594c0.331-0.067,0.654-0.135,0.977-0.21l1.247-0.586c1.352,2.741,3.357,5.679,6.52,6.159
					c2.584,0.391,5.287-0.991,6.752-3.125c4.394-6.384-0.69-11.312-6.88-12.948l0.075-0.271c0.533-0.413,1.097-0.879,1.63-1.39
					C568.734,363.062,572.421,365.074,573.609,368.845z"/>
				<path fill="#FFFFFF" d="M563.409,363.655c6.189,1.637,11.273,6.564,6.88,12.948c-1.465,2.134-4.168,3.516-6.752,3.125
					c-3.162-0.48-5.168-3.418-6.52-6.159c-0.195-0.391-0.376-0.773-0.541-1.149c-0.218-0.495-0.856-0.653-1.337-0.548
					c-6.084,1.396-12.521,1.262-17.17-3.402c-3.236-3.245-4.483-8.314-3.936-12.783c0.354,0.195,0.834,0.157,1.119-0.278
					c1.562-2.441,3.245-4.597,5.769-6.099c3.635-2.171,7.075,0.69,9.351,3.35c0.301,0.354,0.789,0.323,1.165,0.15
					c3.86-1.766,8.239-2.629,12.197-0.661c4.807,2.389,1.848,7.143-1.18,9.472c-0.638,0.487-0.721,1.652,0.24,1.862
					C562.936,363.535,563.176,363.595,563.409,363.655z"/>
				<path fill="#231F20" d="M568.418,474.898c0.15,0.563-0.195,0.999-0.684,1.209c-3.958,1.645-10.522,3.02-13.88-0.698
					c-3.425-3.793-0.503-8.39,2.509-11.356c0.548-0.541,1.276-0.12,1.404,0.458c0.045,0.232-0.008,0.496-0.218,0.729
					c-2.043,2.246-5.431,7.136-1.412,9.358c3.132,1.735,6.902,1.127,10.155-0.03c0.082,0.278,0.165,0.563,0.24,0.856
					c0.225-0.405,0.45-0.804,0.684-1.201c-0.301,0.12-0.608,0.24-0.924,0.345c-1.405-4.619-4.177-7.788-8.202-10.522
					c-0.038-0.022-0.075-0.053-0.113-0.075c-1.014-0.684-0.052-2.343,0.962-1.652C563.649,465.518,566.894,469.34,568.418,474.898z"
					/>
				<path fill="#231F20" d="M567.885,353.937c1.359,3.071-0.533,5.948-2.771,8.059c-0.631-0.188-1.262-0.346-1.878-0.48
					c0.083,0.623,0.165,1.247,0.248,1.87l-0.075,0.271c-0.232-0.061-0.473-0.12-0.714-0.173c-0.961-0.21-0.878-1.375-0.24-1.862
					c3.027-2.329,5.986-7.083,1.18-9.472c-3.958-1.968-8.337-1.104-12.197,0.661c-0.376,0.173-0.864,0.203-1.165-0.15
					c-2.275-2.659-5.716-5.521-9.351-3.35c-2.523,1.502-4.206,3.657-5.769,6.099c-0.285,0.436-0.766,0.474-1.119,0.278
					c0.008-0.128,0.03-0.248,0.045-0.376c0.053-0.376-0.045-0.706-0.24-0.954c2.434-3.905,5.821-7.991,10.868-7.593
					c2.269,0.18,4.574,1.824,6.017,3.492c0.932,1.074,5.551-1.142,7.105-1.187C561.742,348.956,566.158,350.03,567.885,353.937z"/>
				<path fill="#231F20" d="M567.217,474.223c-0.233,0.397-0.459,0.796-0.684,1.201c-0.075-0.293-0.158-0.578-0.24-0.856
					C566.609,474.463,566.917,474.343,567.217,474.223z"/>
				<path fill="#231F20" d="M563.236,361.515c0.616,0.135,1.247,0.293,1.878,0.48c-0.533,0.511-1.097,0.977-1.63,1.39
					C563.401,362.762,563.319,362.138,563.236,361.515z"/>
				<path fill="#FFFFFF" d="M558.091,464.045c4.025,2.734,6.797,5.903,8.202,10.522c-3.253,1.157-7.023,1.766-10.155,0.03
					c-4.019-2.223-0.631-7.112,1.412-9.358c0.21-0.232,0.263-0.496,0.218-0.729L558.091,464.045z"/>
				<path fill="#231F20" d="M557.017,373.569l-1.247,0.586c-0.442-0.181-0.886-0.368-1.329-0.548
					c0.112,0.255,0.232,0.503,0.353,0.758c-6.639,1.353-14.397,0.954-19.024-4.701c-3.478-4.251-4.8-9.584-4.003-14.992
					c0.172-1.148,1.509-1.066,2.072-0.315c-0.045,0.067-0.09,0.143-0.135,0.211c-0.293,0.48-0.053,0.931,0.33,1.119
					c-0.548,4.469,0.699,9.538,3.936,12.783c4.649,4.664,11.086,4.799,17.17,3.402c0.48-0.105,1.119,0.053,1.337,0.548
					C556.641,372.796,556.822,373.179,557.017,373.569z"/>
				<path fill="#231F20" d="M554.441,373.607c0.443,0.18,0.887,0.367,1.329,0.548c-0.322,0.075-0.646,0.143-0.977,0.21
					C554.673,374.11,554.553,373.862,554.441,373.607z"/>
				<path fill="#231F20" d="M533.838,354.356c0.195,0.248,0.293,0.578,0.24,0.954c-0.015,0.128-0.037,0.248-0.045,0.376
					c-0.383-0.188-0.623-0.639-0.33-1.119C533.749,354.499,533.793,354.424,533.838,354.356z"/>
				<path fill="#231F20" d="M525.104,477.94c4.476,3.913,5.625,10.064,1.209,14.811c-4.762,5.107-12.986,6.527-19.183,3.058
					c-10.275-5.746-1.577-16.84,6.737-21.339c1.84-0.991,3.65-1.659,5.242-1.885c1.39-0.195,2.021,1.907,0.594,2.148
					c-4.619,0.766-8.923,3.395-11.8,7.104c-2.261,2.907-4.731,8.044-1.134,11.011c4.528,3.741,12.678,3.688,16.997-0.353
					c4.536-4.236,4.446-9.81-0.526-13.662c-0.338-0.263-0.33-0.812-0.143-1.149c0.075-0.135,0.165-0.301,0.263-0.48l1.029,0.143
					c0.112,0.436,0.226,0.863,0.338,1.3C524.848,478.429,524.976,478.188,525.104,477.94z"/>
				<path fill="#231F20" d="M525.202,469.077c3.319,1.803,1.321,6.182-0.098,8.863c-0.233-0.211-0.466-0.406-0.714-0.594
					l-1.029-0.143c1.18-2.23,3.516-7.24-0.766-6.67c-3.2,0.429-6.106,2.133-8.78,3.838c-0.909,0.579-1.728-0.849-0.834-1.427
					C515.752,471.12,521.596,467.117,525.202,469.077z"/>
				<path fill="#231F20" d="M524.39,477.347c0.248,0.188,0.48,0.383,0.714,0.594c-0.128,0.247-0.256,0.488-0.376,0.706
					C524.616,478.21,524.502,477.782,524.39,477.347z"/>
				<path fill="#FFFFFF" d="M523.241,478.834c4.973,3.853,5.062,9.426,0.526,13.662c-4.319,4.041-12.469,4.094-16.997,0.353
					c-3.598-2.967-1.127-8.104,1.134-11.011c2.877-3.71,7.181-6.339,11.8-7.104c1.427-0.241,0.796-2.344-0.594-2.148
					c-1.592,0.226-3.402,0.894-5.242,1.885l-0.053-0.098c2.674-1.705,5.58-3.409,8.78-3.838c4.281-0.57,1.945,4.439,0.766,6.67
					c-0.098,0.18-0.188,0.346-0.263,0.48C522.911,478.022,522.903,478.571,523.241,478.834z"/>
				<path fill="#231F20" d="M466.016,325.162c0.104,0.008,0.21,0.015,0.315,0.015c0.713,0.008,1.517-0.315,2.027-0.751
					c0.773-0.676,1.142-1.209,1.6-2.208c0.083-0.188,0.053-0.098,0.166-0.398c0.06-0.165,0.112-0.33,0.165-0.495
					c0.105-0.338,0.195-0.676,0.255-1.021c0.113-0.578,0.181-1.202,0.136-1.99c-0.067-1.157-0.458-2.456-1.255-3.26
					c-0.938-0.946-2.253-1.284-3.815-1.149c-2.328,0.195-3.59,4.161-5.438,5.903c-0.519-0.713-1.518-0.421-1.84,0.211
					c-0.271-0.406-0.271-0.992,0.263-1.314c3.319-1.991,1.81-8.863,10.905-5.994c2.712,0.864,3.396,4.394,3.103,7.075
					c-0.323,2.884-1.772,6.204-4.747,7.181c-4.139,1.359-7.563-2.975-9.456-5.986c-0.218-0.346-0.21-0.691-0.067-0.961
					c0.24,0.367,0.706,0.578,1.201,0.285c0.218-0.136,0.436-0.301,0.639-0.496c0.03,0.03,0.045,0.061,0.067,0.09
					c0.939,1.54,2.013,3.05,3.433,4.177c0.158,0.127,0.496,0.36,0.773,0.518c0.218,0.136,0.586,0.309,0.616,0.315
					c0.24,0.091,0.488,0.173,0.743,0.226c0.045,0.008,0.091,0.016,0.136,0.022c-0.008,0,0.007,0.008,0.045,0.008
					C466,325.162,466.008,325.162,466.016,325.162z"/>
				<path fill="#FFFFFF" d="M470.68,318.312c0.045,0.788-0.022,1.412-0.136,1.99c-0.06,0.346-0.149,0.684-0.255,1.021
					c-0.053,0.165-0.105,0.33-0.165,0.495c-0.113,0.301-0.083,0.211-0.166,0.398c-0.458,0.999-0.826,1.532-1.6,2.208
					c-0.511,0.436-1.314,0.759-2.027,0.751c-0.105,0-0.211-0.007-0.315-0.015c-0.008,0-0.016,0-0.03,0
					c-0.038,0-0.053-0.008-0.045-0.008c-0.045-0.007-0.091-0.015-0.136-0.022c-0.255-0.053-0.503-0.135-0.743-0.226
					c-0.03-0.007-0.398-0.18-0.616-0.315c-0.277-0.157-0.615-0.391-0.773-0.518c-1.42-1.127-2.493-2.637-3.433-4.177
					c-0.022-0.029-0.037-0.06-0.067-0.09c1.848-1.742,3.109-5.708,5.438-5.903c1.562-0.135,2.877,0.203,3.815,1.149
					C470.222,315.856,470.613,317.155,470.68,318.312z"/>
				<path fill="#231F20" d="M460.172,319.807c-0.203,0.195-0.421,0.36-0.639,0.496c-0.495,0.293-0.961,0.082-1.201-0.285
					C458.655,319.386,459.654,319.094,460.172,319.807z"/>
				<path fill="#231F20" d="M438.751,465.359c0.33,0.195,0.556,0.646,0.421,1.029c-0.962,2.651-2.614,4.574-4.011,6.88
					c-0.278-0.165-0.579-0.323-0.879-0.466l-1.066-0.09c1.096-1.562,4.491-5.964,3.649-6.354c-4.386-2.043-8.689-0.165-12.73,1.78
					c-0.48,0.007-0.946,0.037-1.404,0.075c-0.376-0.338-0.466-0.977,0.12-1.27C428.056,464.353,433.336,462.175,438.751,465.359z"/>
				<path fill="#231F20" d="M435.162,473.269c5.828,3.319,7.458,9.884,1.382,14.405c-4.979,3.711-10.508,2.171-11.267-3.793
					c0.338-0.037,0.669-0.075,0.991-0.112c-0.36-0.368-0.729-0.729-1.089-1.097c0.008,0.421,0.038,0.826,0.098,1.209
					c-3.109,0.346-6.609,0.669-9.298-1.097c-2.659-1.734-4.522-4.837-6.985-6.872c-0.443-0.36-0.391-1.134,0-1.502
					c4.019-3.846,8.427-5.776,13.737-6.196c0.232,0.218,0.586,0.315,0.946,0.143c0.15-0.075,0.301-0.143,0.458-0.218
					c0.21-0.008,0.421-0.016,0.631-0.016c1.337-0.015,1.329,2.028,0,2.065c-5.265,0.136-9.539,1.578-13.43,4.958
					c-0.27-0.256-0.548-0.496-0.833-0.736c0,0.503,0,1.006,0,1.502c0.277-0.263,0.556-0.519,0.833-0.766
					c1.833,1.704,3.328,3.702,5.183,5.37c2.584,2.313,6.625,1.449,9.749,1.059c0.608-0.075,1.074,0.556,1.097,1.097
					c0.195,5.596,5.048,6.271,8.713,2.704c4.304-4.191,2.08-8.487-2.794-10.861c-0.496-0.24-0.608-0.908-0.36-1.359
					c0.052-0.09,0.157-0.247,0.293-0.442l1.066,0.09c0.12,0.45,0.24,0.901,0.353,1.359
					C434.808,473.854,434.981,473.554,435.162,473.269z"/>
				<path fill="#FFFFFF" d="M436.866,466.358c0.842,0.391-2.554,4.792-3.649,6.354c-0.136,0.195-0.241,0.353-0.293,0.442
					c-0.248,0.451-0.136,1.119,0.36,1.359c4.874,2.374,7.098,6.67,2.794,10.861c-3.665,3.567-8.518,2.892-8.713-2.704
					c-0.022-0.541-0.488-1.172-1.097-1.097c-3.124,0.391-7.165,1.255-9.749-1.059c-1.854-1.668-3.35-3.666-5.183-5.37
					c3.891-3.38,8.165-4.822,13.43-4.958c1.329-0.037,1.337-2.08,0-2.065c-0.21,0-0.421,0.008-0.631,0.016
					C428.176,466.193,432.48,464.315,436.866,466.358z"/>
				<path fill="#231F20" d="M435.162,473.269c-0.181,0.285-0.354,0.586-0.526,0.894c-0.112-0.458-0.232-0.909-0.353-1.359
					C434.583,472.945,434.883,473.104,435.162,473.269z"/>
				<path fill="#231F20" d="M431.804,346.643c6.677,5.611,4.799,14.166-1.149,19.266c-0.067-0.24-0.143-0.48-0.226-0.721
					c-0.18,0.45-0.368,0.901-0.548,1.352l-1.435,0.391c-0.098-0.368-0.211-0.736-0.331-1.104c-0.18-0.557,0.136-1.045,0.556-1.36
					c5.13-3.905,7.571-12.01,1.277-16.291c-6.497-4.416-11.004,1.953-12.821,7.744l-0.375-0.015
					c-0.443-0.691-0.917-1.353-1.435-1.976c1.254-3.726,3.327-7.526,7.098-8.99C425.623,343.691,429.182,344.442,431.804,346.643z"
					/>
				<path fill="#231F20" d="M430.655,365.908c2.133,7.218-0.143,15.202-7.368,18.567c-6.399,2.989-12.183-0.519-15.225-6.009
					c0.451-0.608,0.864-1.225,1.239-1.833l0.451-0.165c2.418,5.235,7.894,8.713,13.481,5.333c5.348-3.245,6.729-9.193,5.213-14.872
					l1.435-0.391C430.144,366.337,430.407,366.126,430.655,365.908z"/>
				<path fill="#231F20" d="M430.429,365.188c0.083,0.24,0.158,0.48,0.226,0.721c-0.248,0.218-0.511,0.429-0.773,0.631
					C430.061,366.089,430.25,365.638,430.429,365.188z"/>
				<path fill="#FFFFFF" d="M429.949,348.175c6.294,4.281,3.853,12.386-1.277,16.291c-0.42,0.315-0.735,0.804-0.556,1.36
					c0.12,0.367,0.233,0.735,0.331,1.104c1.517,5.679,0.135,11.627-5.213,14.872c-5.588,3.38-11.063-0.098-13.481-5.333
					c-0.12-0.256-0.226-0.511-0.331-0.773c-0.375-0.97-1.637-1.255-2.23-0.293c-2.104,3.372-5.024,6.685-9.306,6.662
					c-3.133-0.022-5.911-2.344-7.602-4.792c-1.352-1.953-2.493-4.867-1.457-7.203c1.577-3.567,7.203-2.479,10.08-1.87
					c1.547,0.323,2.208-2.021,0.653-2.389c-0.293-0.067-0.594-0.135-0.894-0.195c0.029-0.173-0.016-0.368-0.158-0.57
					c-3.305-4.612-4.176-10.666,1.465-13.806c5.663-3.146,11.799,1.119,14.781,5.836c0.525,0.826,1.848,0.722,2.118-0.277
					c0.075-0.293,0.165-0.586,0.255-0.879C418.945,350.128,423.452,343.759,429.949,348.175z"/>
				<path fill="#231F20" d="M425.179,482.672c0.36,0.368,0.729,0.729,1.089,1.097c-0.322,0.037-0.653,0.075-0.991,0.112
					C425.217,483.498,425.187,483.093,425.179,482.672z"/>
				<path fill="#231F20" d="M424.135,468.139c-0.157,0.075-0.308,0.143-0.458,0.218c-0.36,0.173-0.714,0.075-0.946-0.143
					C423.189,468.176,423.655,468.146,424.135,468.139z"/>
				<path fill="#231F20" d="M416.752,355.904l0.375,0.015c-0.09,0.293-0.18,0.586-0.255,0.879c-0.271,0.999-1.593,1.104-2.118,0.277
					c-2.982-4.717-9.118-8.982-14.781-5.836c-5.641,3.14-4.77,9.193-1.465,13.806c0.143,0.202,0.188,0.397,0.158,0.57
					c-0.722-0.15-1.465-0.277-2.216-0.368c-3.485-5.159-4.154-12.716,2.418-15.9c6.234-3.034,12.416-0.338,16.449,4.582
					c-0.256,0.759-0.481,1.517-0.677,2.253C415.347,356.092,416.046,355.994,416.752,355.904z"/>
				<path fill="#231F20" d="M416.752,355.904c-0.706,0.09-1.405,0.188-2.111,0.277c0.195-0.736,0.421-1.494,0.677-2.253
					C415.835,354.552,416.309,355.213,416.752,355.904z"/>
				<path fill="#231F20" d="M410.503,474.41c0.285,0.24,0.563,0.48,0.833,0.736c-0.277,0.247-0.556,0.503-0.833,0.766
					C410.503,475.416,410.503,474.913,410.503,474.41z"/>
				<path fill="#231F20" d="M409.752,376.469l-0.451,0.165c-0.743-0.098-1.487-0.195-2.238-0.293
					c0.285,0.736,0.624,1.442,0.999,2.126c-2.523,3.425-6.159,6.534-10.636,6.023c-3.98-0.458-7.465-2.922-9.523-6.347
					c-1.66-2.764-3.026-7.045-0.863-9.952c2.223-2.989,5.911-3.372,9.411-2.944c0.157,0.248,0.33,0.481,0.503,0.714
					c0.541,0.714,1.622,0.33,1.713-0.346c0.3,0.061,0.601,0.128,0.894,0.195c1.555,0.368,0.894,2.712-0.653,2.389
					c-2.877-0.608-8.503-1.697-10.08,1.87c-1.036,2.336,0.105,5.25,1.457,7.203c1.69,2.448,4.469,4.77,7.602,4.792
					c4.281,0.022,7.202-3.29,9.306-6.662c0.594-0.962,1.855-0.677,2.23,0.293C409.527,375.958,409.632,376.213,409.752,376.469z"/>
				<path fill="#231F20" d="M407.063,376.341c0.751,0.098,1.495,0.195,2.238,0.293c-0.375,0.608-0.788,1.225-1.239,1.833
					C407.687,377.783,407.348,377.077,407.063,376.341z"/>
				<path fill="#231F20" d="M398.667,365.615c-0.091,0.676-1.172,1.06-1.713,0.346c-0.173-0.232-0.346-0.466-0.503-0.714
					C397.202,365.338,397.945,365.465,398.667,365.615z"/>
				<path fill="#231F20" d="M369.539,360.448c-0.037-0.016-0.12-0.053-0.127-0.045c-0.083-0.023-0.166-0.046-0.248-0.061
					c-0.053-0.008-0.083-0.022-0.098-0.022c0.022,0,0.037,0,0.045,0c-0.022-0.008-0.053-0.008-0.067-0.008
					c0.008,0,0.015,0.008,0.022,0.008c-0.098,0-0.188-0.008-0.285-0.008c-0.083,0.008-0.173,0.008-0.256,0.016
					c-0.03,0-0.06,0-0.082,0.015c-0.03,0-0.053,0.008-0.083,0.015c-0.263,0.053-0.511,0.12-0.759,0.211
					c-0.105,0.037-0.218,0.075-0.323,0.12c0,0-0.015,0.008-0.029,0.015c-0.075,0.038-0.233,0.105-0.271,0.12
					c-1.359,0.639-2.569,1.54-3.711,2.509c-0.06-0.21-0.157-0.488-0.315-0.916c-0.12-0.315-0.338-0.511-0.586-0.602
					c1.412-1.276,2.989-2.508,4.785-3.109c1.148-0.383,2.605-0.488,3.627,0.286c1.473,1.119,1.833,3.064,1.646,4.814
					c-0.195,1.832-0.826,3.793-2.163,5.13c-1.39,1.382-3.388,1.584-5.002,0.428c-1.143-0.826-2.014-1.953-2.734-3.147
					c-1.119-1.854-0.751-1.239-1.442-3.289c-0.293-0.871,0.608-1.359,1.284-1.112c-0.225,0.203-0.45,0.414-0.668,0.616
					c-0.812,0.767,0.391,1.931,1.209,1.209c0.12-0.104,0.24-0.202,0.36-0.308c0.218,0.691,0.105,0.519,0.879,1.817
					c0.195,0.323,0.398,0.646,0.608,0.954c0.248,0.354,0.233,0.331,0.451,0.594c0.188,0.218,0.383,0.436,0.593,0.638
					c0.091,0.091,0.188,0.173,0.286,0.264c0.029,0.022,0.06,0.045,0.09,0.075c0.008,0.007,0.022,0.015,0.037,0.022
					c0.181,0.135,0.376,0.255,0.571,0.353c0.022,0.015,0.053,0.022,0.075,0.038c-0.008,0-0.016,0-0.016,0
					c0.016,0.007,0.03,0.015,0.053,0.022c-0.008-0.008-0.015-0.008-0.022-0.016c0.09,0.038,0.181,0.067,0.271,0.091
					c0.075,0.022,0.15,0.037,0.226,0.052c-0.098-0.007-0.173-0.022,0.082,0.016c-0.022,0-0.037-0.008-0.06-0.016
					c0.037,0.008,0.082,0.008,0.104,0.008c0.075,0,0.15,0,0.226-0.008c-0.15,0.038,0.195-0.015,0.053-0.007
					c0.098-0.016,0.188-0.038,0.278-0.068c0.037-0.015,0.104-0.045,0.143-0.06c-0.008,0.008-0.022,0.015-0.038,0.022
					c0.045-0.022,0.067-0.03,0.075-0.037c0.008,0,0.008-0.008,0.008-0.008c0.105-0.045,0.195-0.105,0.293-0.165
					c0.022-0.016,0.037-0.03,0.053-0.03c0,0.008,0.015-0.008,0.029-0.022v-0.008c0.068-0.06,0.136-0.112,0.195-0.173
					c0.136-0.128,0.256-0.263,0.376-0.405c0.008-0.015,0.022-0.03,0.037-0.038c0.016-0.015,0.03-0.037,0.03-0.045
					c0.008-0.007,0.008-0.015,0.016-0.022c0.052-0.082,0.112-0.157,0.165-0.24c0.104-0.165,0.202-0.338,0.293-0.519
					c0.06-0.104,0.112-0.21,0.157-0.315c0.008-0.022,0.03-0.06,0.053-0.104c0.008-0.022,0.015-0.045,0.022-0.061v-0.007
					c0.008-0.016,0.016-0.023,0.016-0.03c0.007-0.008,0.007-0.016,0.007-0.022c0.061-0.158,0.12-0.309,0.173-0.474
					c0.136-0.413,0.24-0.841,0.315-1.276c0.016-0.061,0.022-0.128,0.03-0.188c0.008-0.022,0.008-0.045,0.008-0.075
					c0.007-0.067,0.015-0.135,0.022-0.21c0.015-0.203,0.029-0.405,0.029-0.608c0-0.218-0.007-0.436-0.029-0.646
					c-0.008-0.03-0.016-0.113-0.022-0.173c0.007,0.03,0.007,0.06,0.015,0.09c-0.008-0.045-0.008-0.075-0.015-0.098
					c0-0.015,0-0.022-0.008-0.037c0-0.016,0-0.022,0-0.022c-0.008-0.038-0.015-0.075-0.022-0.12c-0.038-0.188-0.09-0.376-0.15-0.563
					c-0.008-0.03-0.022-0.061-0.03-0.091c0,0,0-0.007-0.007-0.015c0,0-0.008-0.015-0.008-0.022c-0.008-0.03-0.022-0.061-0.045-0.12
					c0.015,0.037,0.029,0.082,0.045,0.12c-0.022-0.045-0.061-0.12-0.075-0.158c-0.045-0.082-0.09-0.165-0.143-0.247
					c-0.016-0.022-0.038-0.053-0.061-0.083c0.016,0.015,0.03,0.03,0.045,0.045c-0.022-0.03-0.037-0.053-0.052-0.06
					c-0.016-0.022-0.03-0.038-0.038-0.045c-0.067-0.068-0.128-0.128-0.195-0.195c0,0,0,0-0.008-0.008h-0.007
					c0-0.008-0.008-0.008-0.008-0.008c-0.022-0.015-0.045-0.03-0.083-0.053c-0.067-0.045-0.143-0.082-0.21-0.112
					c0.022,0.008,0.053,0.022,0.075,0.03C369.532,360.448,369.532,360.455,369.539,360.448z"/>
				<path fill="#FFFFFF" d="M370.531,362.394c0.022,0.21,0.029,0.428,0.029,0.646c0,0.203-0.015,0.405-0.029,0.608
					c-0.008,0.075-0.016,0.143-0.022,0.21c0,0.008,0,0.03-0.008,0.053c0,0.008,0,0.016,0,0.022c-0.008,0.061-0.015,0.128-0.03,0.188
					c-0.075,0.436-0.18,0.863-0.315,1.276c-0.053,0.165-0.112,0.315-0.173,0.474c0,0.007,0,0.015-0.007,0.022
					c0,0.007-0.008,0.015-0.016,0.03v0.007c-0.008,0.016-0.015,0.038-0.022,0.061c-0.022,0.045-0.045,0.082-0.053,0.104
					c-0.045,0.105-0.098,0.211-0.157,0.315c-0.091,0.181-0.188,0.354-0.293,0.519c-0.053,0.083-0.113,0.158-0.165,0.24
					c-0.008,0.008-0.008,0.016-0.016,0.022c0,0.008-0.015,0.03-0.03,0.045c-0.015,0.008-0.029,0.023-0.037,0.038
					c-0.12,0.143-0.24,0.277-0.376,0.405c-0.06,0.061-0.127,0.113-0.195,0.173v0.008c-0.015,0.015-0.029,0.03-0.029,0.022
					c-0.016,0-0.03,0.015-0.053,0.03c-0.098,0.06-0.188,0.12-0.293,0.165c0,0,0,0.008-0.008,0.008
					c-0.008,0.007-0.022,0.015-0.037,0.015c-0.038,0.015-0.105,0.045-0.143,0.06c-0.091,0.03-0.181,0.053-0.278,0.068
					c-0.008,0.007-0.022,0.007-0.03,0.007c-0.007,0-0.007,0-0.015,0h-0.008c-0.075,0.008-0.15,0.008-0.226,0.008
					c-0.022,0-0.067,0-0.104-0.008c-0.008,0-0.016,0-0.022,0c-0.075-0.015-0.15-0.029-0.226-0.052
					c-0.09-0.023-0.181-0.053-0.271-0.091c-0.008,0-0.008,0-0.015-0.007c-0.022-0.016-0.053-0.023-0.075-0.038
					c-0.195-0.098-0.391-0.218-0.571-0.353c-0.015-0.008-0.029-0.016-0.037-0.022c-0.03-0.03-0.061-0.053-0.09-0.075
					c-0.098-0.091-0.195-0.173-0.286-0.264c-0.21-0.202-0.405-0.42-0.593-0.638c-0.218-0.263-0.203-0.24-0.451-0.594
					c-0.21-0.308-0.413-0.631-0.608-0.954c-0.773-1.299-0.661-1.126-0.879-1.817c1.142-0.969,2.352-1.87,3.711-2.509
					c0.037-0.015,0.195-0.082,0.271-0.12c0.015-0.007,0.029-0.015,0.029-0.015c0.105-0.045,0.218-0.083,0.323-0.12
					c0.248-0.091,0.496-0.158,0.759-0.211c0.03-0.007,0.053-0.015,0.083-0.015c0.015-0.008,0.029-0.008,0.045-0.008
					c0.015,0,0.022-0.007,0.037-0.007c0.083-0.008,0.173-0.008,0.256-0.016c0.098,0,0.188,0.008,0.285,0.008
					c0.015,0,0.045,0.015,0.098,0.022c0.082,0.015,0.165,0.037,0.248,0.061c0.015,0.007,0.022,0.007,0.037,0.015
					c0.067,0.03,0.143,0.067,0.21,0.112c0.038,0.022,0.061,0.038,0.083,0.053c0,0,0.008,0,0.008,0.008h0.007
					c0.008,0.008,0.008,0.008,0.008,0.008c0.067,0.067,0.128,0.127,0.195,0.195c0.008,0.007,0.022,0.022,0.038,0.045
					c0,0,0.007,0.007,0.007,0.015c0.022,0.03,0.045,0.061,0.061,0.083c0.053,0.082,0.098,0.165,0.143,0.247
					c0.015,0.038,0.053,0.113,0.075,0.158c0,0.008,0.008,0.022,0.008,0.022c0,0.008,0,0.008,0.007,0.015
					c0.008,0.03,0.022,0.061,0.03,0.091c0.061,0.188,0.112,0.375,0.15,0.563c0.008,0.045,0.015,0.082,0.022,0.12
					c0,0,0,0.007,0,0.022c0,0.015,0.008,0.029,0.008,0.037s0,0.008,0,0.008C370.515,362.28,370.523,362.363,370.531,362.394z"/>
				<path fill="#231F20" d="M370.523,362.311c-0.008-0.03-0.008-0.06-0.015-0.09c0,0,0,0,0-0.008
					C370.515,362.235,370.515,362.266,370.523,362.311z"/>
				<path fill="#231F20" d="M370.508,362.213c0-0.008-0.008-0.022-0.008-0.037C370.508,362.19,370.508,362.198,370.508,362.213z"/>
				<path fill="#231F20" d="M370.291,361.364c0.007,0.008,0.007,0.015,0.007,0.015C370.291,361.372,370.291,361.372,370.291,361.364
					z"/>
				<path fill="#231F20" d="M370.283,361.342c-0.016-0.038-0.03-0.083-0.045-0.12C370.26,361.281,370.275,361.312,370.283,361.342z"
					/>
				<path fill="#231F20" d="M370.049,360.898c-0.015-0.015-0.029-0.03-0.045-0.045c0-0.008-0.007-0.015-0.007-0.015
					C370.012,360.846,370.027,360.868,370.049,360.898z"/>
				<path fill="#231F20" d="M369.539,360.448c-0.007,0.007-0.007,0-0.015,0c-0.022-0.008-0.053-0.022-0.075-0.03
					c-0.015-0.008-0.022-0.008-0.037-0.015C369.418,360.396,369.501,360.433,369.539,360.448z"/>
				<path fill="#231F20" d="M369.111,360.32c-0.008,0-0.022,0-0.045,0c-0.008,0-0.015-0.008-0.022-0.008
					C369.058,360.312,369.088,360.312,369.111,360.32z"/>
				<path fill="#231F20" d="M368.525,360.328c-0.015,0-0.022,0.007-0.037,0.007c-0.016,0-0.03,0-0.045,0.008
					C368.465,360.328,368.495,360.328,368.525,360.328z"/>
				<path fill="#231F20" d="M368.195,368.102c0.015,0,0.029-0.008,0.037-0.015c-0.008,0.007-0.03,0.015-0.075,0.037
					C368.172,368.116,368.187,368.109,368.195,368.102z"/>
				<path fill="#231F20" d="M367.774,368.229c0.143-0.008-0.203,0.045-0.053,0.007h0.008c0.008,0,0.008,0,0.015,0
					C367.751,368.236,367.766,368.236,367.774,368.229z"/>
				<path fill="#231F20" d="M367.391,368.236c0.022,0.008,0.037,0.016,0.06,0.016c-0.255-0.038-0.18-0.022-0.082-0.016
					C367.375,368.236,367.383,368.236,367.391,368.236z"/>
				<path fill="#231F20" d="M366.873,368.094c0.008,0.008,0.015,0.008,0.022,0.016c-0.022-0.008-0.037-0.016-0.053-0.022
					c0,0,0.008,0,0.016,0C366.865,368.094,366.865,368.094,366.873,368.094z"/>
				<path fill="#231F20" d="M363.267,363.332c-0.12,0.105-0.24,0.203-0.36,0.308c-0.818,0.722-2.021-0.442-1.209-1.209
					c0.218-0.202,0.443-0.413,0.668-0.616c0.248,0.091,0.466,0.286,0.586,0.602C363.11,362.844,363.208,363.122,363.267,363.332z"/>
			</g>
		</g>
	</g>
</g>
<g>
	<g>
		<g id="XMLID_5_">
			<g>
				<path fill="#231F20" d="M524.03,220.452c1.232,10.327-8.036,17.966-17.199,20.219c-10.793,2.651-23.171,0.405-32.522-5.664
					c-3.395-2.208-7.488-5.625-7.375-10.117c0.037-1.495,0.42-2.839,1.051-4.071c2.118-0.315,4.206-1.111,6.167-2.155
					c-2.562,2.028-4.68,4.679-3.567,7.706c1.307,3.567,5.257,5.874,8.494,7.443c8.255,4.003,17.884,6.226,26.927,3.853
					c7.556-1.983,16.186-7.774,15.149-16.727c-0.946-8.165-9.193-9.772-15.923-7.789c-1.308,0.383-2.539-1.464-1.39-2.396
					c0.188-0.15,0.375-0.308,0.548-0.465l0.083,0.098c0.458,0.803,0.924,1.6,1.39,2.396c1.217-0.984,2.223-2.065,3.019-3.207
					C516.001,209.043,523.061,212.288,524.03,220.452z"/>
				<path fill="#FFFFFF" d="M521.154,220.94c1.036,8.953-7.594,14.744-15.149,16.727c-9.043,2.373-18.672,0.15-26.927-3.853
					c-3.237-1.57-7.188-3.876-8.494-7.443c-1.112-3.027,1.006-5.678,3.567-7.706c1.734-0.924,3.364-2.043,4.807-3.192
					c1.54-1.224-0.436-3.598-2.051-2.659c-1.517,0.879-3.124,1.885-4.597,3.057c-3.529,1.81-7.488,2.516-11.086,0.112
					c-4.206-2.809-5.663-8.743-5.79-13.467c-0.158-5.565,1.757-11.236,5.985-14.977c5.776-5.107,14.278-3.771,20.985-1.712
					c0.804,0.248,1.405-0.105,1.705-0.654c6.542-3.192,14.946,3.756,20.452,8.502c5.836,5.047,5.228,11.852-0.173,16.614
					c-0.173,0.158-0.36,0.315-0.548,0.465c-1.149,0.932,0.082,2.779,1.39,2.396C511.96,211.168,520.208,212.776,521.154,220.94z"/>
				<path fill="#231F20" d="M507.303,193.105c4.702,5.077,5.168,11.401,1.577,16.471c-1.486,0.113-2.974,0.383-4.408,0.812
					l-0.083-0.098c5.4-4.762,6.009-11.567,0.173-16.614c-5.506-4.747-13.91-11.694-20.452-8.502
					c0.315-0.585,0.293-1.389-0.188-1.922C491.38,180.164,501.603,186.946,507.303,193.105z"/>
				<path fill="#231F20" d="M508.88,209.576c-0.796,1.142-1.802,2.223-3.019,3.207c-0.466-0.796-0.932-1.592-1.39-2.396
					C505.907,209.959,507.394,209.689,508.88,209.576z"/>
				<path fill="#231F20" d="M484.553,280.111c4.438,5.528,2.088,14.616-1.66,19.881c-6.158,8.652-16.696,10.327-26.272,6.519
					c-10.876-4.311-19.205-12.28-23.899-23.095c-1.983-4.582-3.178-9.982-1.262-14.781c1.555-3.876,4.882-6.174,8.622-7.489
					c1.502,0.984,3.162,1.788,4.754,2.396l0.03,0.173c-5.032,0.999-10.395,3.455-10.62,9.313c-0.195,5.1,2.013,10.05,4.709,14.271
					c5.618,8.788,14.729,16.577,25.552,17.606c8.698,0.818,16.164-4.281,18.387-12.806c1.164-4.432,0.962-12.28-5.137-10.425
					l-0.046-0.143c1.164-1.074,2.193-2.238,3.072-3.47C482.217,278.248,483.562,278.879,484.553,280.111z"/>
				<path fill="#231F20" d="M483.922,183.251c0.48,0.533,0.503,1.337,0.188,1.922c-0.075,0.03-0.157,0.075-0.232,0.113
					c-1.037,0.548-1.953-1.006-0.924-1.577C483.269,183.536,483.592,183.378,483.922,183.251z"/>
				<path fill="#231F20" d="M483.877,185.286c0.075-0.038,0.157-0.083,0.232-0.113c-0.3,0.548-0.901,0.901-1.705,0.654
					c-6.707-2.058-15.209-3.395-20.985,1.712c-4.229,3.74-6.144,9.411-5.985,14.977c0.127,4.724,1.584,10.658,5.79,13.467
					c3.598,2.404,7.557,1.698,11.086-0.112c-1.772,1.389-3.35,3.019-4.326,4.949c-2.764,0.421-5.565,0.023-8.156-1.705
					c-5.235-3.493-7.594-10.042-7.767-16.133c-0.18-6.58,1.968-13.91,7.338-18.124c6.91-5.423,15.931-4.882,23.84-2.05
					c0.285,0.105,0.511,0.255,0.684,0.443c-0.33,0.127-0.653,0.285-0.969,0.458C481.924,184.28,482.84,185.834,483.877,185.286z"/>
				<path fill="#FFFFFF" d="M477.756,281.673c6.099-1.855,6.301,5.994,5.137,10.425c-2.223,8.525-9.688,13.625-18.387,12.806
					c-10.822-1.029-19.934-8.818-25.552-17.606c-2.696-4.221-4.904-9.17-4.709-14.271c0.226-5.858,5.588-8.314,10.62-9.313
					c0.323-0.06,0.639-0.12,0.954-0.173c2.013-0.323,1.524-3.004,0-3.59c-3.71-1.42-8.329-4.079-7.03-8.728
					c1.111-3.951,5.311-6.752,8.772-8.42c3.538-1.697,8.263-2.659,11.785-0.473c5.114,3.169,3.222,11.612,2.448,16.306
					c-0.181,1.074,0.511,1.833,1.307,2.028c-0.519,1.27-0.788,2.756-0.751,4.424c0.022,1.239,1.765,1.187,1.886,0
					c0.33-3.177,1.359-6.324,4.731-7.233c2.839-0.759,6.039,0.661,8.231,2.374c7.181,5.618,3.815,13.76-1.84,18.95
					c-1.164,1.074,0.045,3.425,1.615,2.779C477.246,281.846,477.5,281.755,477.756,281.673z"/>
				<path fill="#231F20" d="M477.951,257.458c7.781,5.363,7.602,13.91,2.832,20.602c-1.562-0.21-3.237,0.098-4.687,0.691
					c0.533,0.932,1.074,1.855,1.614,2.779l0.046,0.143c-0.256,0.083-0.511,0.173-0.781,0.286c-1.57,0.646-2.779-1.705-1.615-2.779
					c5.655-5.19,9.021-13.332,1.84-18.95c-2.192-1.712-5.393-3.132-8.231-2.374c-3.372,0.909-4.401,4.056-4.731,7.233
					c-0.121,1.187-1.863,1.239-1.886,0c-0.037-1.667,0.232-3.154,0.751-4.424c0.751,0.195,1.607-0.12,1.915-1.142
					c0.233-0.751,0.443-1.54,0.624-2.366C468.773,254.611,473.647,254.499,477.951,257.458z"/>
				<path fill="#231F20" d="M476.096,278.751c1.449-0.593,3.124-0.901,4.687-0.691c-0.879,1.232-1.908,2.396-3.072,3.47
					C477.17,280.606,476.629,279.683,476.096,278.751z"/>
				<path fill="#231F20" d="M476.907,212.813c1.615-0.939,3.591,1.435,2.051,2.659c-1.442,1.149-3.072,2.269-4.807,3.192
					c1.532-1.217,3.222-2.208,4.461-2.929c-0.684-0.886-1.366-1.773-2.05-2.659c-1.3,1.029-2.734,2.013-4.252,2.794
					C473.783,214.699,475.39,213.692,476.907,212.813z"/>
				<path fill="#231F20" d="M476.562,213.076c0.684,0.886,1.366,1.773,2.05,2.659c-1.239,0.721-2.929,1.712-4.461,2.929
					c-1.961,1.044-4.049,1.84-6.167,2.155c0.977-1.93,2.554-3.56,4.326-4.949C473.828,215.089,475.262,214.105,476.562,213.076z"/>
				<path fill="#231F20" d="M461.803,239.597c5.197,3.936,5.205,11.537,3.838,17.561c-1.089,0.886-1.968,2.065-2.539,3.507
					c-0.796-0.195-1.487-0.954-1.307-2.028c0.773-4.694,2.666-13.137-2.448-16.306c-3.522-2.186-8.247-1.224-11.785,0.473
					c-3.462,1.667-7.661,4.469-8.772,8.42c-1.299,4.649,3.32,7.308,7.03,8.728c1.524,0.586,2.013,3.267,0,3.59
					c-0.315,0.053-0.631,0.113-0.954,0.173l-0.03-0.173c0-1.194,0-2.388,0-3.59c-1.592,0.263-3.207,0.638-4.754,1.194
					c-3.485-2.306-6.114-5.67-5.032-10.237c1.254-5.295,6.264-9.389,11.063-11.469C450.972,237.329,457.229,236.142,461.803,239.597
					z"/>
				<path fill="#231F20" d="M465.641,257.158c-0.181,0.826-0.391,1.615-0.624,2.366c-0.308,1.021-1.164,1.337-1.915,1.142
					C463.673,259.223,464.552,258.044,465.641,257.158z"/>
				<path fill="#231F20" d="M444.835,259.952c0,1.202,0,2.396,0,3.59c-1.592-0.608-3.252-1.412-4.754-2.396
					C441.628,260.59,443.244,260.214,444.835,259.952z"/>
				<path fill="#231F20" d="M412.615,198.633c3.146,4.214,4.536,9.697,2.591,14.729c-2.141,5.55-7.623,8.637-13.121,10.47
					c-0.504-0.421-1.066-0.819-1.69-1.187c-0.503-0.3-1.059-0.525-1.6-0.751l-0.105-0.428c5.394-1.284,11.958-3.74,13.926-9.358
					c1.337-3.846,0.511-7.961-1.773-11.296c-2.035-2.974-5.52-6.076-9.373-5.963c-4.875,0.15-6.985,5.047-8.06,9.125
					c-0.149,0.556-0.57,0.804-1.006,0.811c-0.669,0.008-1.375-0.548-1.18-1.412c1.127-4.972,4.004-10.793,9.832-11.056
					C405.689,192.114,409.933,195.043,412.615,198.633z"/>
				<path fill="#231F20" d="M413.275,266.201c3.741,4.537,3.103,9.696-2.605,12.092c-2.171,0.909-4.484,1.39-6.812,1.697
					c-1.841,0.233-6.632,1.465-8.066,0.03c-3.583-3.583-3.771-8.908-2.765-13.963c0.195,2.043,0.887,4.154,1.735,5.761
					c0.308,0.578,0.961,0.563,1.374,0.225c0.218,1.772,0.751,3.515,1.705,5.22c-0.338-0.008-0.646,0-0.908,0
					c0.465,0.27,0.931,0.533,1.396,0.804c-0.173-0.271-0.338-0.534-0.488-0.804c4.184-0.015,13.775-0.008,14.946-4.544
					c0.789-3.057-2.786-6.151-4.964-7.676c-2.599-1.825-6.572-4.191-9.922-3.56c-0.075,0.015-0.15,0.03-0.218,0.052
					c0.308-0.901,0.646-1.802,0.999-2.688C403.985,258.802,409.978,262.19,413.275,266.201z"/>
				<path fill="#FFFFFF" d="M407.823,265.044c2.178,1.524,5.753,4.619,4.964,7.676c-1.171,4.537-10.763,4.529-14.946,4.544
					c-0.954-1.705-1.487-3.448-1.705-5.22c0.271-0.203,0.436-0.548,0.331-0.946c-0.12-0.458-0.278-0.999-0.436-1.592
					c0.075-2.659,0.743-5.34,1.652-7.969c0.067-0.022,0.143-0.038,0.218-0.052C401.25,260.853,405.224,263.219,407.823,265.044z"/>
				<path fill="#FFFFFF" d="M410.841,200.811c2.284,3.335,3.11,7.451,1.773,11.296c-1.968,5.618-8.532,8.074-13.926,9.358
					c-0.391,0.09-0.781,0.18-1.164,0.263c-1.329,0.285-1.675,2.403-0.391,3.004c6.94,3.222,6.189,9.426,1.615,14.586
					c-4.664,5.257-12.393,8.765-19.394,6.805c-10.177-2.847-13.512-16.997-10.755-25.845c1.667-5.37,5.7-10.598,10.996-12.753
					c6.406-2.606,12.062,1.562,15.87,6.437c1.172,1.495,3.793-0.525,2.644-2.042c-1.652-2.178-3.5-4.101-5.565-5.581l-0.143-1.555
					c0.436-0.007,0.856-0.255,1.006-0.811c1.074-4.078,3.185-8.976,8.06-9.125C405.322,194.735,408.806,197.837,410.841,200.811z"/>
				<path fill="#231F20" d="M402.084,223.832c5.896,4.89,3.868,12.949-1.292,18.281c-6.129,6.324-16.419,10.62-24.876,6.362
					c-11.387-5.731-14.722-22.015-9.254-32.8c2.779-5.483,7.789-11.146,14.196-12.183c4.514-0.729,8.382,0.488,11.687,2.847
					c2.065,1.479,3.913,3.402,5.565,5.581c1.149,1.517-1.472,3.538-2.644,2.042c-3.809-4.875-9.464-9.043-15.87-6.437
					c-5.296,2.156-9.329,7.383-10.996,12.753c-2.757,8.848,0.578,22.998,10.755,25.845c7.001,1.96,14.729-1.547,19.394-6.805
					c4.574-5.16,5.325-11.364-1.615-14.586c-1.284-0.601-0.938-2.719,0.391-3.004c0.383-0.083,0.773-0.173,1.164-0.263l0.105,0.428
					c-0.135,0.999-0.263,1.998-0.398,3.004C399.606,224.598,400.845,224.245,402.084,223.832z"/>
				<path fill="#231F20" d="M400.394,222.645c0.624,0.368,1.187,0.766,1.69,1.187c-1.239,0.413-2.479,0.766-3.688,1.066
					c0.136-1.006,0.264-2.005,0.398-3.004C399.335,222.12,399.891,222.345,400.394,222.645z"/>
				<path fill="#231F20" d="M395.738,257.42c0.804-1.923,3.966-1.097,3.169,0.871c-0.075,0.188-0.149,0.368-0.225,0.556
					c-0.083,0.007-0.166,0.007-0.241,0.007c-1.675,0.045-2.898,0.533-3.763,1.314C395.024,259.193,395.384,258.269,395.738,257.42z"
					/>
				<path fill="#231F20" d="M398.441,258.855c0.075,0,0.158,0,0.241-0.007c-0.354,0.886-0.691,1.787-0.999,2.688
					c-3.478,0.819-2.494,4.995-1.652,7.969c-0.038,0.849,0,1.697,0.104,2.539c-0.413,0.338-1.066,0.353-1.374-0.225
					c-0.849-1.607-1.54-3.718-1.735-5.761c0.398-2.058,0.999-4.063,1.652-5.888C395.542,259.388,396.766,258.9,398.441,258.855z"/>
				<path fill="#231F20" d="M398.329,278.068c-0.466-0.271-0.932-0.534-1.396-0.804c0.263,0,0.57-0.008,0.908,0
					C397.991,277.534,398.156,277.797,398.329,278.068z"/>
				<path fill="#231F20" d="M396.466,271.098c0.104,0.398-0.061,0.744-0.331,0.946c-0.104-0.841-0.143-1.69-0.104-2.539
					C396.188,270.099,396.346,270.64,396.466,271.098z"/>
				<path fill="#231F20" d="M397.683,261.536c-0.909,2.629-1.577,5.311-1.652,7.969
					C395.189,266.531,394.206,262.355,397.683,261.536z"/>
				<path fill="#231F20" d="M394.678,260.169c-0.653,1.825-1.254,3.831-1.652,5.888
					C392.793,263.752,393.184,261.521,394.678,260.169z"/>
			</g>
		</g>
	</g>
</g>
</svg>
